<?xml version="1.0" encoding="UTF-8"?>
<svg xmlns="http://www.w3.org/2000/svg" width="100%" height="100%" viewBox="0 0 620 620"><defs></defs><rect width="620" height="620" fill="black" style="fill: var(--color-figures-bg, black)" /><path d="M 300.4844302632091 97.75547416248692 L 188.5031315689335 518.5336874379469" fill="none" stroke="white" style="stroke: var(--color-figures-line, white)" stroke-width="1" opacity="0.84" stroke-dasharray="1 5" stroke-linecap="round"></path><path d="M 188.5031315689335 518.5336874379469 L 186.69509538634915 509.77406386370205 M 188.5031315689335 518.5336874379469 L 194.42600871877877 511.83148434733255" fill="none" stroke="white" style="stroke: var(--color-figures-line, white)" stroke-width="1" opacity="0.84" stroke-linecap="round" stroke-linejoin="round"></path><path d="M 306.7305809206611 98.8552696216383 L 269.60873176216757 517.3197510446565" fill="none" stroke="white" style="stroke: var(--color-figures-line, white)" stroke-width="1" opacity="0.84" stroke-dasharray="1 5" stroke-linecap="round"></path><path d="M 269.60873176216757 517.3197510446565 L 266.3312797121178 508.99759338815755 M 269.60873176216757 517.3197510446565 L 274.2999866573369 509.70449481071734" fill="none" stroke="white" style="stroke: var(--color-figures-line, white)" stroke-width="1" opacity="0.84" stroke-linecap="round" stroke-linejoin="round"></path><path d="M 313.2694190793389 98.8552696216383 L 350.39126823783243 517.3197510446565" fill="none" stroke="white" style="stroke: var(--color-figures-line, white)" stroke-width="1" opacity="0.84" stroke-dasharray="1 5" stroke-linecap="round"></path><path d="M 350.39126823783243 517.3197510446565 L 345.7000133426631 509.70449481071734 M 350.39126823783243 517.3197510446565 L 353.6687202878822 508.99759338815755" fill="none" stroke="white" style="stroke: var(--color-figures-line, white)" stroke-width="1" opacity="0.84" stroke-linecap="round" stroke-linejoin="round"></path><path d="M 319.5155697367909 97.75547416248692 L 431.4968684310665 518.5336874379469" fill="none" stroke="white" style="stroke: var(--color-figures-line, white)" stroke-width="1" opacity="0.84" stroke-dasharray="1 5" stroke-linecap="round"></path><path d="M 431.4968684310665 518.5336874379469 L 425.57399128122125 511.83148434733255 M 431.4968684310665 518.5336874379469 L 433.3049046136509 509.77406386370205" fill="none" stroke="white" style="stroke: var(--color-figures-line, white)" stroke-width="1" opacity="0.84" stroke-linecap="round" stroke-linejoin="round"></path><g transform="translate(310 62) rotate(0)"><g fill="none" stroke="white" style="stroke: var(--color-figures-shape-accent-primary, white)" stroke-width="1"><circle cx="0" cy="0" r="24" /></g></g><g transform="translate(178 558) rotate(0)"><g fill="none" stroke="white" style="stroke: var(--color-figures-shape-accent-secondary, white)" stroke-width="1"><rect x="-24" y="-24" width="48" height="48" /></g></g><g transform="translate(266 558) rotate(0)"><g fill="none" stroke="white" style="stroke: var(--color-figures-shape-accent-secondary, white)" stroke-width="1"><polygon points="1.4695761589768238e-15,-24 20.784609690826528,11.999999999999996 -20.784609690826525,12.000000000000007" /></g></g><g transform="translate(354 558) rotate(0)"><g fill="none" stroke="white" style="stroke: var(--color-figures-shape-accent-secondary, white)" stroke-width="1"><polygon points="1.4695761589768238e-15,-24 22.825356391083684,-7.416407864998737 14.106846055019355,19.41640786499874 -14.106846055019354,19.41640786499874 -22.825356391083687,-7.416407864998735" /></g></g><g transform="translate(442 558) rotate(0)"><g fill="none" stroke="white" style="stroke: var(--color-figures-shape-accent-secondary, white)" stroke-width="1"><path d="M -6.280642936639493 -23.631460587387913 Q 1.5618003803776788e-15 -25.506135833859446 6.332626864761114 -23.72149939207158 Q 12.665253729522226 -21.936862950283714 17.48513018276024 -17.407332267926847 Q 22.305006635998254 -12.87780158556998 23.572168438615684 -6.43890079278499 Q 24.839330241233114 0 23.504123523315435 6.399615042619406 Q 22.16891680539776 12.799230085238811 17.743189710011723 17.932875980834787 Q 13.317462614625688 23.066521876430762 6.658731307312845 24.059610207590588 Q 1.5340353537742131e-15 25.052698538750413 -5.486885212585326 22.02991323287136 Q -10.973770425170654 19.007127926992304 -15.650559193715942 15.37156387245751 Q -20.32734796226123 11.73599981792272 -22.548268173486488 5.8679999089613615 Q -24.769188384711747 3.033350727281504e-15 -22.40094776743353 -5.782944432869553 Q -20.032707150155307 -11.56588886573911 -16.296996511717147 -16.661337103327746 Q -12.561285873278988 -21.75678534091638 -6.280642936639493 -23.631460587387913 Z" /></g></g></svg>